HIERARCHY
ROOT Hips
{
 OFFSET 0.000000 0.000000 0.000000
 CHANNELS 6 Xposition Yposition Zposition Yrotation Xrotation Zrotation
 JOINT Chest
 {
  OFFSET 0.000000 9.585900 0.002600
  CHANNELS 3 Yrotation Xrotation Zrotation
  JOINT Chest2
  {
   OFFSET 0.000000 9.601200 -0.005300
   CHANNELS 3 Yrotation Xrotation Zrotation
   JOINT Chest3
   {
    OFFSET 0.000000 9.561800 0.000000
    CHANNELS 3 Yrotation Xrotation Zrotation
    JOINT Chest4
    {
     OFFSET 0.000000 9.552100 0.000000
     CHANNELS 3 Yrotation Xrotation Zrotation
     JOINT Neck
     {
      OFFSET 0.000000 14.453000 0.000000
      CHANNELS 3 Yrotation Xrotation Zrotation
      JOINT Head
      {
       OFFSET 0.000000 8.936500 -0.011300
       CHANNELS 3 Yrotation Xrotation Zrotation
       End Site
       {
        OFFSET 0.000000 17.073600 -0.006000
       }
      }
     }
     JOINT RightCollar
     {
      OFFSET -2.921100 9.558500 0.000000
      CHANNELS 3 Yrotation Xrotation Zrotation
      JOINT RightShoulder
      {
       OFFSET -13.519700 0.000000 0.000000
       CHANNELS 3 Yrotation Xrotation Zrotation
       JOINT RightElbow
       {
        OFFSET 0.000000 -29.696600 0.000000
        CHANNELS 3 Yrotation Xrotation Zrotation
        JOINT RightWrist
        {
         OFFSET 0.000000 -24.004700 0.000000
         CHANNELS 3 Yrotation Xrotation Zrotation
         End Site
         {
          OFFSET 0.000000 -17.728500 0.000000
         }
        }
       }
      }
     }
     JOINT LeftCollar
     {
      OFFSET 2.921100 9.558500 0.000000
      CHANNELS 3 Yrotation Xrotation Zrotation
      JOINT LeftShoulder
      {
       OFFSET 13.519700 0.000000 0.000000
       CHANNELS 3 Yrotation Xrotation Zrotation
       JOINT LeftElbow
       {
        OFFSET 0.000000 -29.696600 0.000000
        CHANNELS 3 Yrotation Xrotation Zrotation
        JOINT LeftWrist
        {
         OFFSET 0.000000 -24.004700 0.000000
         CHANNELS 3 Yrotation Xrotation Zrotation
         End Site
         {
          OFFSET 0.000000 -17.728500 0.000000
         }
        }
       }
      }
     }
    }
   }
  }
 }
 JOINT RightHip
 {
  OFFSET -7.771700 -0.012900 -0.001300
  CHANNELS 3 Yrotation Xrotation Zrotation
  JOINT RightKnee
  {
   OFFSET 0.000000 -40.869800 0.001200
   CHANNELS 3 Yrotation Xrotation Zrotation
   JOINT RightAnkle
   {
    OFFSET 0.000000 -39.717900 0.002100
    CHANNELS 3 Yrotation Xrotation Zrotation
    JOINT RightToe
    {
     OFFSET 0.000000 -4.965400 11.033500
     CHANNELS 3 Yrotation Xrotation Zrotation
     End Site
     {
      OFFSET 0.000000 -1.423100 5.872300
     }
    }
   }
  }
 }
 JOINT LeftHip
 {
  OFFSET 7.771700 -0.012900 -0.001300
  CHANNELS 3 Yrotation Xrotation Zrotation
  JOINT LeftKnee
  {
   OFFSET 0.000000 -40.869800 0.001200
   CHANNELS 3 Yrotation Xrotation Zrotation
   JOINT LeftAnkle
   {
    OFFSET 0.000000 -39.717900 0.002100
    CHANNELS 3 Yrotation Xrotation Zrotation
    JOINT LeftToe
    {
     OFFSET 0.000000 -4.965400 11.033500
     CHANNELS 3 Yrotation Xrotation Zrotation
     End Site
     {
      OFFSET 0.000000 -1.423100 5.872300
     }
    }
   }
  }
 }
}
MOTION
Frames: 12
Frame Time: 0.008333
-31.150523 57.693243 91.159956 -164.838837 -54.034604 -0.149806 -9.735326 26.878641 -2.990903 -1.585265 5.037055 -0.324600 -2.499675 7.903212 -0.579999 -7.458807 21.951255 -2.578064 2.052200 26.232462 -4.098420 4.544130 13.153354 -7.741687 9.974062 0.428757 -3.366726 41.854363 -38.149038 -29.917052 105.153924 -77.582424 -40.865011 10.310496 -16.769935 -37.175360 -12.030454 -3.010161 -6.873096 2.129610 -49.519721 -8.783884 -170.764832 -52.837404 157.589077 -15.409830 -9.142918 16.753566 2.595418 -16.713625 -16.464686 -10.099875 79.283951 -3.930550 -0.887584 -4.900977 0.250336 -0.022268 0.120412 0.037070 -15.128357 -24.011412 -20.880365 66.098838 76.318681 60.050317 -18.349684 -10.451654 -0.113409 -0.171108 -0.842581 -0.072740
-31.151317 57.693197 91.159601 -164.835899 -54.031868 -0.154869 -9.736669 26.876687 -2.987022 -1.590577 5.040126 -0.321694 -2.505293 7.905037 -0.577445 -7.453473 21.945655 -2.584584 2.047627 26.237250 -4.092345 4.544373 13.152226 -7.750362 9.977070 0.437047 -3.362539 41.856408 -38.152320 -29.928148 105.152075 -77.589007 -40.860195 10.314426 -16.772935 -37.173265 -12.028990 -3.002959 -6.871380 2.109412 -49.508428 -8.768312 -170.739866 -52.817586 157.572430 -15.419476 -9.157029 16.795232 2.592762 -16.717493 -16.465841 -10.078761 79.284451 -3.906369 -0.886618 -4.893563 0.234527 -0.024942 0.126832 0.025001 -15.134149 -24.017864 -20.871302 66.121204 76.322992 60.065893 -18.358569 -10.445390 -0.106009 -0.153077 -0.846158 -0.077932
-31.152623 57.692067 91.160583 -164.826410 -54.022237 -0.161424 -9.750376 26.870288 -2.987106 -1.587568 5.039279 -0.321470 -2.505795 7.904088 -0.579006 -7.459165 21.947752 -2.581983 2.046333 26.240189 -4.094022 4.542020 13.157770 -7.753159 9.984054 0.444360 -3.364467 41.841146 -38.156458 -29.927562 105.204359 -77.588601 -40.896133 10.311958 -16.781029 -37.174091 -12.021175 -3.006715 -6.877475 2.092279 -49.491694 -8.752136 -170.709818 -52.782602 157.555258 -15.424166 -9.167637 16.841557 2.589135 -16.731288 -16.471561 -10.104645 79.287671 -3.926997 -0.878650 -4.878527 0.201485 -0.023980 0.119896 0.040902 -15.143803 -24.032822 -20.867207 66.131605 76.328350 60.062743 -18.309347 -10.437458 -0.119711 -0.173382 -0.849061 -0.065502
-31.155416 57.691645 91.161859 -164.825026 -54.018412 -0.153619 -9.759571 26.868185 -2.993598 -1.585403 5.036696 -0.324726 -2.510247 7.907526 -0.574790 -7.463393 21.947402 -2.580968 2.044602 26.243212 -4.096367 4.536897 13.177618 -7.744287 9.988876 0.453020 -3.370517 41.843362 -38.163029 -29.936407 105.218152 -77.589582 -40.904866 10.304497 -16.790296 -37.170826 -12.014636 -3.002932 -6.884781 2.082621 -49.488938 -8.740666 -170.671271 -52.747191 157.510531 -15.412937 -9.167997 16.901789 2.595724 -16.735711 -16.487827 -10.035192 79.290019 -3.852033 -0.885342 -4.872880 0.183037 -0.023697 0.119866 0.047302 -15.142898 -24.041650 -20.872590 66.115900 76.334151 60.039764 -18.301028 -10.428718 -0.115236 -0.169682 -0.851000 -0.068559
-31.157894 57.691022 91.163674 -164.825269 -54.012947 -0.146776 -9.765689 26.862055 -2.996462 -1.586402 5.037131 -0.324108 -2.513198 7.913155 -0.568909 -7.467104 21.942071 -2.582702 2.042861 26.253683 -4.090542 4.532674 13.180962 -7.753221 9.991975 0.458361 -3.381868 41.838493 -38.167111 -29.936842 105.226946 -77.596507 -40.914573 10.295481 -16.798286 -37.152688 -12.004268 -2.989904 -6.889038 2.080000 -49.500263 -8.746375 -170.666914 -52.736152 157.493532 -15.416472 -9.173104 16.948675 2.600150 -16.742454 -16.498292 -10.022260 79.290672 -3.837945 -0.883544 -4.868786 0.167114 -0.025030 0.119192 0.060169 -15.141765 -24.051968 -20.874757 66.105903 76.338621 60.023038 -18.299615 -10.419200 -0.108311 -0.181572 -0.854724 -0.072838
-31.160324 57.690690 91.165700 -164.823257 -54.009343 -0.142937 -9.772420 26.862309 -3.000346 -1.586393 5.036773 -0.323527 -2.512112 7.911255 -0.569792 -7.467154 21.943345 -2.577746 2.039428 26.251551 -4.096294 4.536134 13.191475 -7.747169 9.990315 0.462741 -3.388457 41.828931 -38.169672 -29.935099 105.259186 -77.603592 -40.942616 10.285301 -16.805450 -37.132124 -12.001992 -2.985658 -6.895160 2.071627 -49.503054 -8.738154 -170.681975 -52.739141 157.493115 -15.429605 -9.178659 16.977774 2.601084 -16.746725 -16.507250 -10.023610 79.289833 -3.838308 -0.879376 -4.866282 0.151244 -0.022159 0.124366 0.061386 -15.143455 -24.060275 -20.875074 66.091347 76.343772 60.001014 -18.299016 -10.410156 -0.102813 -0.182587 -0.858267 -0.074915
-31.164224 57.691905 91.167340 -164.840789 -54.016864 -0.116516 -9.770606 26.872824 -3.011219 -1.586721 5.037453 -0.323145 -2.512085 7.908507 -0.572014 -7.467319 21.948233 -2.573833 2.040496 26.254937 -4.094772 4.531193 13.184790 -7.752378 9.983214 0.476313 -3.392873 41.828812 -38.169612 -29.935592 105.275768 -77.618192 -40.962236 10.296275 -16.804482 -37.106051 -12.001019 -2.986874 -6.900493 2.058200 -49.498430 -8.722227 -170.709666 -52.745600 157.508039 -15.439985 -9.187884 17.039060 2.613960 -16.740225 -16.522924 -10.012716 79.289831 -3.828995 -0.878055 -4.865285 0.136963 -0.019564 0.132108 0.051349 -15.128006 -24.052223 -20.890800 66.053585 76.340724 59.962642 -18.314180 -10.409550 -0.088244 -0.203275 -0.852559 -0.087410
-31.165305 57.692009 91.169400 -164.841853 -54.015476 -0.119940 -9.767228 26.878384 -3.001547 -1.588895 5.036109 -0.323149 -2.512706 7.910180 -0.571298 -7.467731 21.950333 -2.571526 2.042404 26.257397 -4.094206 4.534051 13.189430 -7.751679 9.979401 0.478182 -3.399964 41.827378 -38.172740 -29.934348 105.269937 -77.625065 -40.956362 10.292031 -16.809419 -37.080615 -12.003020 -2.990621 -6.906657 2.046817 -49.486298 -8.703516 -170.746051 -52.749240 157.529698 -15.405105 -9.177845 17.106010 2.611917 -16.742415 -16.519174 -10.003160 79.286397 -3.819263 -0.879357 -4.861689 0.120505 -0.017977 0.133495 0.062680 -15.129142 -24.052098 -20.887472 66.049650 76.338110 59.958505 -18.300469 -10.413601 -0.093589 -0.175446 -0.846488 -0.084727
-31.165979 57.692443 91.171345 -164.848945 -54.016068 -0.121585 -9.757728 26.882829 -2.992216 -1.586073 5.039448 -0.321867 -2.511052 7.911734 -0.570131 -7.456849 21.961560 -2.566210 2.037944 26.251111 -4.088971 4.543666 13.207412 -7.734970 9.956315 0.470545 -3.400394 41.832006 -38.178761 -29.934124 105.264620 -77.624651 -40.948467 10.277267 -16.813130 -37.052377 -12.021830 -3.004920 -6.903512 2.042059 -49.455414 -8.679953 -170.798249 -52.733517 157.568592 -15.415408 -9.180799 17.129178 2.614345 -16.742357 -16.511989 -10.062001 79.280762 -3.875451 -0.868686 -4.856185 0.108598 -0.019001 0.135207 0.058964 -15.128805 -24.049071 -20.884365 66.050937 76.333110 59.961457 -18.284182 -10.418615 -0.099455 -0.175986 -0.841778 -0.083637
-31.174090 57.694732 91.174015 -164.869589 -54.030334 -0.068332 -9.761765 26.895513 -3.034948 -1.584650 5.039172 -0.320095 -2.509775 7.915150 -0.569181 -7.455055 21.965686 -2.563443 2.046295 26.263515 -4.080261 4.537813 13.200060 -7.727296 9.945064 0.464178 -3.400226 41.835103 -38.182558 -29.929433 105.254504 -77.623773 -40.937646 10.270782 -16.811204 -37.035191 -12.032019 -3.013291 -6.903148 2.040586 -49.453807 -8.672694 -170.808600 -52.733724 157.573028 -15.385091 -9.164450 17.151205 2.639160 -16.728128 -16.557970 -10.050472 79.284686 -3.866223 -0.865826 -4.856691 0.109414 -0.018257 0.137106 0.048682 -15.099726 -24.043742 -20.930849 66.037427 76.327332 59.955040 -18.317824 -10.462603 -0.116479 -0.132537 -0.796626 -0.067788
-31.174972 57.695118 91.176224 -164.873140 -54.030405 -0.071051 -9.754944 26.897685 -3.026622 -1.588413 5.042564 -0.323154 -2.509355 7.916646 -0.568723 -7.446750 21.966589 -2.559240 2.043706 26.262051 -4.077721 4.541901 13.206735 -7.719710 9.933464 0.462137 -3.399831 41.841218 -38.185322 -29.925742 105.187258 -77.634040 -40.870545 10.280507 -16.805494 -37.019127 -12.065978 -3.021458 -6.920922 2.069093 -49.434243 -8.645825 -170.872126 -52.739444 157.598348 -15.387244 -9.154729 17.189554 2.640114 -16.728766 -16.551562 -10.067605 79.280213 -3.882307 -0.865094 -4.851257 0.094379 -0.018832 0.138067 0.048839 -15.097233 -24.041292 -20.932880 66.038520 76.320207 59.962547 -18.302837 -10.465696 -0.122504 -0.130261 -0.793085 -0.067840
-31.169337 57.694529 91.177384 -164.857454 -54.023140 -0.127955 -9.739859 26.898295 -2.974201 -1.585940 5.043350 -0.322892 -2.504304 7.922861 -0.564988 -7.448788 21.966255 -2.559945 2.040368 26.259335 -4.074190 4.547706 13.220333 -7.709429 9.923101 0.469397 -3.399910 41.849073 -38.195817 -29.934307 105.165262 -77.635758 -40.848446 10.262962 -16.803859 -36.986298 -12.083297 -3.029887 -6.924260 2.134659 -49.364848 -8.660621 -171.002201 -52.725866 157.625607 -15.380474 -9.135554 17.256595 2.617001 -16.736408 -16.497764 -10.108601 79.267521 -3.918261 -0.864264 -4.837955 0.063945 -0.020497 0.135751 0.059090 -15.121627 -24.035838 -20.889041 66.037347 76.314745 59.969579 -18.290706 -10.424231 -0.110266 -0.180268 -0.834890 -0.084776
